<svg width="20" height="20" viewBox="0 0 20 20" fill="none" xmlns="http://www.w3.org/2000/svg">
<path d="M9.99996 18.3333C14.6023 18.3333 18.3333 14.6023 18.3333 10C18.3333 5.39762 14.6023 1.66667 9.99996 1.66667C5.39758 1.66667 1.66663 5.39762 1.66663 10C1.66663 14.6023 5.39758 18.3333 9.99996 18.3333Z" stroke="white" stroke-opacity="0.5" stroke-linecap="round" stroke-linejoin="round"/>
<path d="M2.08337 10.4167L6.66671 12.0833L5.83337 15L6.66671 17.5" stroke="white" stroke-opacity="0.5" stroke-linecap="round" stroke-linejoin="round"/>
<path d="M14.1666 17.0833L13.75 15L11.6666 14.1667V11.25L14.1666 10.4167L17.9166 10.8333" stroke="white" stroke-opacity="0.5" stroke-linecap="round" stroke-linejoin="round"/>
<path d="M15.8333 4.58333L15.4167 5.83333L12.5 6.25V8.75L14.5833 7.91667H16.25L17.9167 8.75" stroke="white" stroke-opacity="0.5" stroke-linecap="round" stroke-linejoin="round"/>
<path d="M2.08337 8.75L4.16671 7.08333L6.25004 6.66667L7.91671 4.16667L7.08337 2.5" stroke="white" stroke-opacity="0.5" stroke-linecap="round" stroke-linejoin="round"/>
</svg>
